<mxfile host="app.diagrams.net" agent="Mozilla/5.0 (Windows NT 10.0; Win64; x64) AppleWebKit/537.36 (KHTML, like Gecko) Chrome/134.0.0.0 Safari/537.36" version="26.1.3">
  <diagram name="Page-1" id="O4h_-fHmCFpr84xupetf">
    <mxGraphModel dx="2950" dy="1060" grid="1" gridSize="10" guides="1" tooltips="1" connect="1" arrows="1" fold="1" page="1" pageScale="1" pageWidth="850" pageHeight="1100" math="0" shadow="0">
      <root>
        <mxCell id="0" />
        <mxCell id="1" parent="0" />
        <mxCell id="eR2wr4R8r9WLx05fAy1V-1" value="Étterem" style="html=1;whiteSpace=wrap;" vertex="1" parent="1">
          <mxGeometry x="270" y="260" width="110" height="50" as="geometry" />
        </mxCell>
        <mxCell id="eR2wr4R8r9WLx05fAy1V-2" value="Főszakács" style="html=1;whiteSpace=wrap;" vertex="1" parent="1">
          <mxGeometry x="-60" y="260" width="110" height="50" as="geometry" />
        </mxCell>
        <mxCell id="eR2wr4R8r9WLx05fAy1V-3" value="Gyakornok" style="html=1;whiteSpace=wrap;" vertex="1" parent="1">
          <mxGeometry x="460" y="430" width="110" height="50" as="geometry" />
        </mxCell>
        <mxCell id="eR2wr4R8r9WLx05fAy1V-4" value="Szakács" style="html=1;whiteSpace=wrap;" vertex="1" parent="1">
          <mxGeometry x="140" y="440" width="110" height="50" as="geometry" />
        </mxCell>
        <mxCell id="eR2wr4R8r9WLx05fAy1V-5" value="Vendég" style="html=1;whiteSpace=wrap;" vertex="1" parent="1">
          <mxGeometry x="1014" y="255" width="110" height="50" as="geometry" />
        </mxCell>
        <mxCell id="eR2wr4R8r9WLx05fAy1V-6" value="E-F" style="rhombus;whiteSpace=wrap;html=1;" vertex="1" parent="1">
          <mxGeometry x="90" y="257.5" width="110" height="55" as="geometry" />
        </mxCell>
        <mxCell id="eR2wr4R8r9WLx05fAy1V-7" value="E-Gy" style="rhombus;whiteSpace=wrap;html=1;" vertex="1" parent="1">
          <mxGeometry x="440" y="340" width="110" height="55" as="geometry" />
        </mxCell>
        <mxCell id="eR2wr4R8r9WLx05fAy1V-8" value="E-Sz" style="rhombus;whiteSpace=wrap;html=1;" vertex="1" parent="1">
          <mxGeometry x="140" y="350" width="110" height="55" as="geometry" />
        </mxCell>
        <mxCell id="eR2wr4R8r9WLx05fAy1V-9" value="rendelés" style="rhombus;whiteSpace=wrap;html=1;" vertex="1" parent="1">
          <mxGeometry x="758" y="250" width="110" height="55" as="geometry" />
        </mxCell>
        <mxCell id="eR2wr4R8r9WLx05fAy1V-10" value="fkód" style="ellipse;whiteSpace=wrap;html=1;" vertex="1" parent="1">
          <mxGeometry x="-232" y="168" width="120" height="40" as="geometry" />
        </mxCell>
        <mxCell id="eR2wr4R8r9WLx05fAy1V-11" value="név" style="ellipse;whiteSpace=wrap;html=1;" vertex="1" parent="1">
          <mxGeometry x="-232" y="220" width="120" height="40" as="geometry" />
        </mxCell>
        <mxCell id="eR2wr4R8r9WLx05fAy1V-12" value="életkor" style="ellipse;whiteSpace=wrap;html=1;" vertex="1" parent="1">
          <mxGeometry x="-232" y="270" width="120" height="40" as="geometry" />
        </mxCell>
        <mxCell id="eR2wr4R8r9WLx05fAy1V-13" value="&lt;span style=&quot;color: rgba(0, 0, 0, 0); font-family: monospace; font-size: 0px; text-align: start; text-wrap-mode: nowrap;&quot;&gt;%3CmxGraphModel%3E%3Croot%3E%3CmxCell%20id%3D%220%22%2F%3E%3CmxCell%20id%3D%221%22%20parent%3D%220%22%2F%3E%3CmxCell%20id%3D%222%22%20value%3D%22%22%20style%3D%22endArrow%3Dnone%3Bhtml%3D1%3Brounded%3D0%3B%22%20edge%3D%221%22%20parent%3D%221%22%3E%3CmxGeometry%20width%3D%2250%22%20height%3D%2250%22%20relative%3D%221%22%20as%3D%22geometry%22%3E%3CmxPoint%20x%3D%22801%22%20y%3D%22623%22%20as%3D%22sourcePoint%22%2F%3E%3CmxPoint%20x%3D%22745%22%20y%3D%22589%22%20as%3D%22targetPoint%22%2F%3E%3C%2FmxGeometry%3E%3C%2FmxCell%3E%3C%2Froot%3E%3C%2FmxGraphModel%3E&lt;/span&gt;" style="ellipse;whiteSpace=wrap;html=1;" vertex="1" parent="1">
          <mxGeometry x="-232" y="320" width="120" height="40" as="geometry" />
        </mxCell>
        <mxCell id="eR2wr4R8r9WLx05fAy1V-14" value="szkod" style="ellipse;whiteSpace=wrap;html=1;" vertex="1" parent="1">
          <mxGeometry x="-170" y="540" width="120" height="40" as="geometry" />
        </mxCell>
        <mxCell id="eR2wr4R8r9WLx05fAy1V-15" value="végzettség" style="ellipse;whiteSpace=wrap;html=1;" vertex="1" parent="1">
          <mxGeometry x="225" y="540" width="120" height="40" as="geometry" />
        </mxCell>
        <mxCell id="eR2wr4R8r9WLx05fAy1V-16" value="részleg" style="ellipse;whiteSpace=wrap;html=1;" vertex="1" parent="1">
          <mxGeometry x="92" y="540" width="120" height="40" as="geometry" />
        </mxCell>
        <mxCell id="eR2wr4R8r9WLx05fAy1V-17" value="név" style="ellipse;whiteSpace=wrap;html=1;" vertex="1" parent="1">
          <mxGeometry x="-39" y="540" width="120" height="40" as="geometry" />
        </mxCell>
        <mxCell id="eR2wr4R8r9WLx05fAy1V-18" value="gykod" style="ellipse;whiteSpace=wrap;html=1;" vertex="1" parent="1">
          <mxGeometry x="410" y="540" width="120" height="40" as="geometry" />
        </mxCell>
        <mxCell id="eR2wr4R8r9WLx05fAy1V-19" value="muszak" style="ellipse;whiteSpace=wrap;html=1;" vertex="1" parent="1">
          <mxGeometry x="820" y="540" width="120" height="40" as="geometry" />
        </mxCell>
        <mxCell id="eR2wr4R8r9WLx05fAy1V-20" value="gyakorlat" style="ellipse;whiteSpace=wrap;html=1;" vertex="1" parent="1">
          <mxGeometry x="690" y="540" width="120" height="40" as="geometry" />
        </mxCell>
        <mxCell id="eR2wr4R8r9WLx05fAy1V-21" value="név" style="ellipse;whiteSpace=wrap;html=1;" vertex="1" parent="1">
          <mxGeometry x="550" y="540" width="120" height="40" as="geometry" />
        </mxCell>
        <mxCell id="eR2wr4R8r9WLx05fAy1V-22" value="idotartam" style="ellipse;whiteSpace=wrap;html=1;" vertex="1" parent="1">
          <mxGeometry x="770" y="620" width="120" height="40" as="geometry" />
        </mxCell>
        <mxCell id="eR2wr4R8r9WLx05fAy1V-23" value="kezdete" style="ellipse;whiteSpace=wrap;html=1;" vertex="1" parent="1">
          <mxGeometry x="630" y="620" width="120" height="40" as="geometry" />
        </mxCell>
        <mxCell id="eR2wr4R8r9WLx05fAy1V-24" value="csillag" style="ellipse;whiteSpace=wrap;html=1;" vertex="1" parent="1">
          <mxGeometry x="120" y="168" width="120" height="40" as="geometry" />
        </mxCell>
        <mxCell id="eR2wr4R8r9WLx05fAy1V-25" value="&lt;span style=&quot;background-color: transparent; color: light-dark(rgb(0, 0, 0), rgb(255, 255, 255));&quot;&gt;ekod&lt;/span&gt;" style="ellipse;whiteSpace=wrap;html=1;" vertex="1" parent="1">
          <mxGeometry x="494" y="170" width="120" height="40" as="geometry" />
        </mxCell>
        <mxCell id="eR2wr4R8r9WLx05fAy1V-26" value="név" style="ellipse;whiteSpace=wrap;html=1;" vertex="1" parent="1">
          <mxGeometry x="369" y="168" width="120" height="40" as="geometry" />
        </mxCell>
        <mxCell id="eR2wr4R8r9WLx05fAy1V-27" value="cim" style="ellipse;whiteSpace=wrap;html=1;" vertex="1" parent="1">
          <mxGeometry x="245" y="168" width="120" height="40" as="geometry" />
        </mxCell>
        <mxCell id="eR2wr4R8r9WLx05fAy1V-28" value="város" style="ellipse;whiteSpace=wrap;html=1;" vertex="1" parent="1">
          <mxGeometry x="150" y="90" width="120" height="40" as="geometry" />
        </mxCell>
        <mxCell id="eR2wr4R8r9WLx05fAy1V-29" value="utca" style="ellipse;whiteSpace=wrap;html=1;" vertex="1" parent="1">
          <mxGeometry x="280" y="90" width="120" height="40" as="geometry" />
        </mxCell>
        <mxCell id="eR2wr4R8r9WLx05fAy1V-30" value="házszám" style="ellipse;whiteSpace=wrap;html=1;" vertex="1" parent="1">
          <mxGeometry x="410" y="90" width="120" height="40" as="geometry" />
        </mxCell>
        <mxCell id="eR2wr4R8r9WLx05fAy1V-31" value="étel" style="ellipse;whiteSpace=wrap;html=1;" vertex="1" parent="1">
          <mxGeometry x="820" y="160" width="120" height="40" as="geometry" />
        </mxCell>
        <mxCell id="eR2wr4R8r9WLx05fAy1V-32" value="összeg" style="ellipse;whiteSpace=wrap;html=1;" vertex="1" parent="1">
          <mxGeometry x="693" y="160" width="120" height="40" as="geometry" />
        </mxCell>
        <mxCell id="eR2wr4R8r9WLx05fAy1V-33" value="vkod" style="ellipse;whiteSpace=wrap;html=1;" vertex="1" parent="1">
          <mxGeometry x="1140" y="170" width="120" height="40" as="geometry" />
        </mxCell>
        <mxCell id="eR2wr4R8r9WLx05fAy1V-34" value="nev" style="ellipse;whiteSpace=wrap;html=1;" vertex="1" parent="1">
          <mxGeometry x="1140" y="220" width="120" height="40" as="geometry" />
        </mxCell>
        <mxCell id="eR2wr4R8r9WLx05fAy1V-35" value="cim" style="ellipse;whiteSpace=wrap;html=1;" vertex="1" parent="1">
          <mxGeometry x="1140" y="272.5" width="120" height="40" as="geometry" />
        </mxCell>
        <mxCell id="eR2wr4R8r9WLx05fAy1V-36" value="életkor" style="ellipse;whiteSpace=wrap;html=1;" vertex="1" parent="1">
          <mxGeometry x="1140" y="330" width="120" height="40" as="geometry" />
        </mxCell>
        <mxCell id="eR2wr4R8r9WLx05fAy1V-37" value="hazszam" style="ellipse;whiteSpace=wrap;html=1;" vertex="1" parent="1">
          <mxGeometry x="1308" y="390" width="120" height="40" as="geometry" />
        </mxCell>
        <mxCell id="eR2wr4R8r9WLx05fAy1V-38" value="utca" style="ellipse;whiteSpace=wrap;html=1;" vertex="1" parent="1">
          <mxGeometry x="1299" y="340" width="120" height="40" as="geometry" />
        </mxCell>
        <mxCell id="eR2wr4R8r9WLx05fAy1V-39" value="város" style="ellipse;whiteSpace=wrap;html=1;" vertex="1" parent="1">
          <mxGeometry x="1300" y="290" width="120" height="40" as="geometry" />
        </mxCell>
        <mxCell id="eR2wr4R8r9WLx05fAy1V-41" value="" style="endArrow=none;html=1;rounded=0;entryX=1;entryY=0.5;entryDx=0;entryDy=0;exitX=0;exitY=0.5;exitDx=0;exitDy=0;" edge="1" parent="1" source="eR2wr4R8r9WLx05fAy1V-2" target="eR2wr4R8r9WLx05fAy1V-10">
          <mxGeometry width="50" height="50" relative="1" as="geometry">
            <mxPoint x="70" y="280" as="sourcePoint" />
            <mxPoint x="120" y="230" as="targetPoint" />
          </mxGeometry>
        </mxCell>
        <mxCell id="eR2wr4R8r9WLx05fAy1V-42" value="" style="endArrow=none;html=1;rounded=0;entryX=1;entryY=0.5;entryDx=0;entryDy=0;exitX=0;exitY=0.5;exitDx=0;exitDy=0;" edge="1" parent="1" target="eR2wr4R8r9WLx05fAy1V-11">
          <mxGeometry width="50" height="50" relative="1" as="geometry">
            <mxPoint x="-50" y="295" as="sourcePoint" />
            <mxPoint x="-102" y="198" as="targetPoint" />
          </mxGeometry>
        </mxCell>
        <mxCell id="eR2wr4R8r9WLx05fAy1V-43" value="" style="endArrow=none;html=1;rounded=0;entryX=1;entryY=0.5;entryDx=0;entryDy=0;exitX=0;exitY=0.5;exitDx=0;exitDy=0;" edge="1" parent="1" target="eR2wr4R8r9WLx05fAy1V-12">
          <mxGeometry width="50" height="50" relative="1" as="geometry">
            <mxPoint x="-40" y="305" as="sourcePoint" />
            <mxPoint x="-102" y="250" as="targetPoint" />
          </mxGeometry>
        </mxCell>
        <mxCell id="eR2wr4R8r9WLx05fAy1V-44" value="" style="endArrow=none;html=1;rounded=0;entryX=0.933;entryY=0.85;entryDx=0;entryDy=0;exitX=0;exitY=0.5;exitDx=0;exitDy=0;entryPerimeter=0;" edge="1" parent="1" target="eR2wr4R8r9WLx05fAy1V-13">
          <mxGeometry width="50" height="50" relative="1" as="geometry">
            <mxPoint x="-30" y="315" as="sourcePoint" />
            <mxPoint x="-102" y="300" as="targetPoint" />
          </mxGeometry>
        </mxCell>
        <mxCell id="eR2wr4R8r9WLx05fAy1V-45" value="" style="endArrow=none;html=1;rounded=0;" edge="1" parent="1" source="eR2wr4R8r9WLx05fAy1V-14" target="eR2wr4R8r9WLx05fAy1V-4">
          <mxGeometry width="50" height="50" relative="1" as="geometry">
            <mxPoint x="210" y="405" as="sourcePoint" />
            <mxPoint x="120" y="444" as="targetPoint" />
          </mxGeometry>
        </mxCell>
        <mxCell id="eR2wr4R8r9WLx05fAy1V-46" value="" style="endArrow=none;html=1;rounded=0;" edge="1" parent="1" source="eR2wr4R8r9WLx05fAy1V-17">
          <mxGeometry width="50" height="50" relative="1" as="geometry">
            <mxPoint x="-56" y="556" as="sourcePoint" />
            <mxPoint x="150" y="492" as="targetPoint" />
          </mxGeometry>
        </mxCell>
        <mxCell id="eR2wr4R8r9WLx05fAy1V-47" value="" style="endArrow=none;html=1;rounded=0;entryX=0.393;entryY=0.92;entryDx=0;entryDy=0;entryPerimeter=0;" edge="1" parent="1" source="eR2wr4R8r9WLx05fAy1V-16" target="eR2wr4R8r9WLx05fAy1V-4">
          <mxGeometry width="50" height="50" relative="1" as="geometry">
            <mxPoint x="63" y="553" as="sourcePoint" />
            <mxPoint x="160" y="502" as="targetPoint" />
          </mxGeometry>
        </mxCell>
        <mxCell id="eR2wr4R8r9WLx05fAy1V-48" value="" style="endArrow=none;html=1;rounded=0;entryX=0.596;entryY=0.952;entryDx=0;entryDy=0;entryPerimeter=0;" edge="1" parent="1" source="eR2wr4R8r9WLx05fAy1V-15" target="eR2wr4R8r9WLx05fAy1V-4">
          <mxGeometry width="50" height="50" relative="1" as="geometry">
            <mxPoint x="170" y="550" as="sourcePoint" />
            <mxPoint x="193" y="496" as="targetPoint" />
          </mxGeometry>
        </mxCell>
        <mxCell id="eR2wr4R8r9WLx05fAy1V-49" value="" style="endArrow=classic;html=1;rounded=0;entryX=1;entryY=0.5;entryDx=0;entryDy=0;" edge="1" parent="1" source="eR2wr4R8r9WLx05fAy1V-6" target="eR2wr4R8r9WLx05fAy1V-2">
          <mxGeometry width="50" height="50" relative="1" as="geometry">
            <mxPoint x="250" y="540" as="sourcePoint" />
            <mxPoint x="300" y="490" as="targetPoint" />
          </mxGeometry>
        </mxCell>
        <mxCell id="eR2wr4R8r9WLx05fAy1V-51" value="" style="endArrow=classic;html=1;rounded=0;entryX=0;entryY=0.5;entryDx=0;entryDy=0;exitX=1;exitY=0.5;exitDx=0;exitDy=0;" edge="1" parent="1" source="eR2wr4R8r9WLx05fAy1V-6" target="eR2wr4R8r9WLx05fAy1V-1">
          <mxGeometry width="50" height="50" relative="1" as="geometry">
            <mxPoint x="180" y="320" as="sourcePoint" />
            <mxPoint x="300" y="490" as="targetPoint" />
            <Array as="points">
              <mxPoint x="200" y="285" />
            </Array>
          </mxGeometry>
        </mxCell>
        <mxCell id="eR2wr4R8r9WLx05fAy1V-52" value="" style="endArrow=classic;html=1;rounded=0;entryX=1;entryY=0.5;entryDx=0;entryDy=0;exitX=0.113;exitY=0.611;exitDx=0;exitDy=0;exitPerimeter=0;" edge="1" parent="1" source="eR2wr4R8r9WLx05fAy1V-9" target="eR2wr4R8r9WLx05fAy1V-1">
          <mxGeometry width="50" height="50" relative="1" as="geometry">
            <mxPoint x="680" y="340" as="sourcePoint" />
            <mxPoint x="280" y="295" as="targetPoint" />
          </mxGeometry>
        </mxCell>
        <mxCell id="eR2wr4R8r9WLx05fAy1V-56" value="" style="endArrow=classic;html=1;rounded=0;exitX=0.905;exitY=0.538;exitDx=0;exitDy=0;exitPerimeter=0;" edge="1" parent="1" source="eR2wr4R8r9WLx05fAy1V-9">
          <mxGeometry width="50" height="50" relative="1" as="geometry">
            <mxPoint x="370" y="540" as="sourcePoint" />
            <mxPoint x="1010" y="280" as="targetPoint" />
          </mxGeometry>
        </mxCell>
        <mxCell id="eR2wr4R8r9WLx05fAy1V-57" value="" style="endArrow=classic;html=1;rounded=0;exitX=0.5;exitY=1;exitDx=0;exitDy=0;entryX=0.5;entryY=0;entryDx=0;entryDy=0;" edge="1" parent="1" source="eR2wr4R8r9WLx05fAy1V-7" target="eR2wr4R8r9WLx05fAy1V-3">
          <mxGeometry width="50" height="50" relative="1" as="geometry">
            <mxPoint x="590" y="490" as="sourcePoint" />
            <mxPoint x="640" y="440" as="targetPoint" />
          </mxGeometry>
        </mxCell>
        <mxCell id="eR2wr4R8r9WLx05fAy1V-59" value="" style="endArrow=classic;html=1;rounded=0;" edge="1" parent="1" source="eR2wr4R8r9WLx05fAy1V-8" target="eR2wr4R8r9WLx05fAy1V-4">
          <mxGeometry width="50" height="50" relative="1" as="geometry">
            <mxPoint x="590" y="490" as="sourcePoint" />
            <mxPoint x="640" y="440" as="targetPoint" />
          </mxGeometry>
        </mxCell>
        <mxCell id="eR2wr4R8r9WLx05fAy1V-60" value="" style="endArrow=classic;html=1;rounded=0;" edge="1" parent="1" source="eR2wr4R8r9WLx05fAy1V-7" target="eR2wr4R8r9WLx05fAy1V-1">
          <mxGeometry width="50" height="50" relative="1" as="geometry">
            <mxPoint x="590" y="490" as="sourcePoint" />
            <mxPoint x="640" y="440" as="targetPoint" />
          </mxGeometry>
        </mxCell>
        <mxCell id="eR2wr4R8r9WLx05fAy1V-61" value="" style="endArrow=classic;html=1;rounded=0;entryX=0.25;entryY=1;entryDx=0;entryDy=0;" edge="1" parent="1" source="eR2wr4R8r9WLx05fAy1V-8" target="eR2wr4R8r9WLx05fAy1V-1">
          <mxGeometry width="50" height="50" relative="1" as="geometry">
            <mxPoint x="590" y="490" as="sourcePoint" />
            <mxPoint x="640" y="440" as="targetPoint" />
          </mxGeometry>
        </mxCell>
        <mxCell id="eR2wr4R8r9WLx05fAy1V-62" value="" style="endArrow=none;html=1;rounded=0;" edge="1" parent="1">
          <mxGeometry width="50" height="50" relative="1" as="geometry">
            <mxPoint x="310" y="170" as="sourcePoint" />
            <mxPoint x="360" y="120" as="targetPoint" />
          </mxGeometry>
        </mxCell>
        <mxCell id="eR2wr4R8r9WLx05fAy1V-63" value="" style="endArrow=none;html=1;rounded=0;" edge="1" parent="1" target="eR2wr4R8r9WLx05fAy1V-28">
          <mxGeometry width="50" height="50" relative="1" as="geometry">
            <mxPoint x="320" y="180" as="sourcePoint" />
            <mxPoint x="370" y="130" as="targetPoint" />
          </mxGeometry>
        </mxCell>
        <mxCell id="eR2wr4R8r9WLx05fAy1V-64" value="" style="endArrow=none;html=1;rounded=0;" edge="1" parent="1" target="eR2wr4R8r9WLx05fAy1V-30">
          <mxGeometry width="50" height="50" relative="1" as="geometry">
            <mxPoint x="330" y="190" as="sourcePoint" />
            <mxPoint x="380" y="140" as="targetPoint" />
          </mxGeometry>
        </mxCell>
        <mxCell id="eR2wr4R8r9WLx05fAy1V-65" value="" style="endArrow=none;html=1;rounded=0;" edge="1" parent="1" target="eR2wr4R8r9WLx05fAy1V-1">
          <mxGeometry width="50" height="50" relative="1" as="geometry">
            <mxPoint x="320" y="180" as="sourcePoint" />
            <mxPoint x="370" y="130" as="targetPoint" />
          </mxGeometry>
        </mxCell>
        <mxCell id="eR2wr4R8r9WLx05fAy1V-66" value="" style="endArrow=none;html=1;rounded=0;" edge="1" parent="1">
          <mxGeometry width="50" height="50" relative="1" as="geometry">
            <mxPoint x="770" y="190" as="sourcePoint" />
            <mxPoint x="774" y="270" as="targetPoint" />
          </mxGeometry>
        </mxCell>
        <mxCell id="eR2wr4R8r9WLx05fAy1V-67" value="" style="endArrow=none;html=1;rounded=0;" edge="1" parent="1">
          <mxGeometry width="50" height="50" relative="1" as="geometry">
            <mxPoint x="850" y="192.5" as="sourcePoint" />
            <mxPoint x="854" y="272.5" as="targetPoint" />
          </mxGeometry>
        </mxCell>
        <mxCell id="eR2wr4R8r9WLx05fAy1V-68" value="" style="endArrow=none;html=1;rounded=0;exitX=0;exitY=1;exitDx=0;exitDy=0;" edge="1" parent="1" source="eR2wr4R8r9WLx05fAy1V-38" target="eR2wr4R8r9WLx05fAy1V-35">
          <mxGeometry width="50" height="50" relative="1" as="geometry">
            <mxPoint x="1000" y="430" as="sourcePoint" />
            <mxPoint x="1070" y="340" as="targetPoint" />
          </mxGeometry>
        </mxCell>
        <mxCell id="eR2wr4R8r9WLx05fAy1V-69" value="" style="endArrow=none;html=1;rounded=0;entryX=1;entryY=1;entryDx=0;entryDy=0;" edge="1" parent="1" source="eR2wr4R8r9WLx05fAy1V-39" target="eR2wr4R8r9WLx05fAy1V-35">
          <mxGeometry width="50" height="50" relative="1" as="geometry">
            <mxPoint x="1327" y="384" as="sourcePoint" />
            <mxPoint x="1236" y="321" as="targetPoint" />
          </mxGeometry>
        </mxCell>
        <mxCell id="eR2wr4R8r9WLx05fAy1V-70" value="" style="endArrow=none;html=1;rounded=0;exitX=0;exitY=1;exitDx=0;exitDy=0;" edge="1" parent="1" source="eR2wr4R8r9WLx05fAy1V-37" target="eR2wr4R8r9WLx05fAy1V-35">
          <mxGeometry width="50" height="50" relative="1" as="geometry">
            <mxPoint x="1310" y="318" as="sourcePoint" />
            <mxPoint x="1252" y="317" as="targetPoint" />
          </mxGeometry>
        </mxCell>
        <mxCell id="eR2wr4R8r9WLx05fAy1V-71" value="" style="endArrow=none;html=1;rounded=0;" edge="1" parent="1" source="eR2wr4R8r9WLx05fAy1V-23" target="eR2wr4R8r9WLx05fAy1V-20">
          <mxGeometry width="50" height="50" relative="1" as="geometry">
            <mxPoint x="470" y="590" as="sourcePoint" />
            <mxPoint x="520" y="540" as="targetPoint" />
          </mxGeometry>
        </mxCell>
        <mxCell id="eR2wr4R8r9WLx05fAy1V-72" value="" style="endArrow=none;html=1;rounded=0;" edge="1" parent="1" source="eR2wr4R8r9WLx05fAy1V-22">
          <mxGeometry width="50" height="50" relative="1" as="geometry">
            <mxPoint x="715" y="631" as="sourcePoint" />
            <mxPoint x="745" y="589" as="targetPoint" />
          </mxGeometry>
        </mxCell>
        <mxCell id="eR2wr4R8r9WLx05fAy1V-73" value="" style="endArrow=none;html=1;rounded=0;" edge="1" parent="1" source="eR2wr4R8r9WLx05fAy1V-20" target="eR2wr4R8r9WLx05fAy1V-3">
          <mxGeometry width="50" height="50" relative="1" as="geometry">
            <mxPoint x="811" y="633" as="sourcePoint" />
            <mxPoint x="755" y="599" as="targetPoint" />
          </mxGeometry>
        </mxCell>
        <mxCell id="eR2wr4R8r9WLx05fAy1V-77" value="&lt;span style=&quot;color: rgba(0, 0, 0, 0); font-family: monospace; font-size: 0px; text-align: start; text-wrap-mode: nowrap;&quot;&gt;%3CmxGraphModel%3E%3Croot%3E%3CmxCell%20id%3D%220%22%2F%3E%3CmxCell%20id%3D%221%22%20parent%3D%220%22%2F%3E%3CmxCell%20id%3D%222%22%20value%3D%22%22%20style%3D%22endArrow%3Dnone%3Bhtml%3D1%3Brounded%3D0%3B%22%20edge%3D%221%22%20parent%3D%221%22%3E%3CmxGeometry%20width%3D%2250%22%20height%3D%2250%22%20relative%3D%221%22%20as%3D%22geometry%22%3E%3CmxPoint%20x%3D%22801%22%20y%3D%22623%22%20as%3D%22sourcePoint%22%2F%3E%3CmxPoint%20x%3D%22745%22%20y%3D%22589%22%20as%3D%22targetPoint%22%2F%3E%3C%2FmxGeometry%3E%3C%2FmxCell%3E%3C%2Froot%3E%3C%2FmxGraphModel%3E&lt;/span&gt;" style="ellipse;whiteSpace=wrap;html=1;" vertex="1" parent="1">
          <mxGeometry x="-223" y="330" width="102" height="20" as="geometry" />
        </mxCell>
        <mxCell id="eR2wr4R8r9WLx05fAy1V-78" value="&lt;span style=&quot;color: rgba(0, 0, 0, 0); font-family: monospace; font-size: 0px; text-align: start; text-wrap-mode: nowrap;&quot;&gt;%3CmxGraphModel%3E%3Croot%3E%3CmxCell%20id%3D%220%22%2F%3E%3CmxCell%20id%3D%221%22%20parent%3D%220%22%2F%3E%3CmxCell%20id%3D%222%22%20value%3D%22%22%20style%3D%22endArrow%3Dnone%3Bhtml%3D1%3Brounded%3D0%3B%22%20edge%3D%221%22%20parent%3D%221%22%3E%3CmxGeometry%20width%3D%2250%22%20height%3D%2250%22%20relative%3D%221%22%20as%3D%22geometry%22%3E%3CmxPoint%20x%3D%22801%22%20y%3D%22623%22%20as%3D%22sourcePoint%22%2F%3E%3CmxPoint%20x%3D%22745%22%20y%3D%22589%22%20as%3D%22targetPoint%22%2F%3E%3C%2FmxGeometry%3E%3C%2FmxCell%3E%3C%2Froot%3E%3C%2FmxGraphModel%3E&lt;/span&gt;" style="ellipse;whiteSpace=wrap;html=1;" vertex="1" parent="1">
          <mxGeometry x="234" y="550" width="102" height="20" as="geometry" />
        </mxCell>
        <mxCell id="eR2wr4R8r9WLx05fAy1V-79" value="&lt;span style=&quot;color: rgba(0, 0, 0, 0); font-family: monospace; font-size: 0px; text-align: start; text-wrap-mode: nowrap;&quot;&gt;%3CmxGraphModel%3E%3Croot%3E%3CmxCell%20id%3D%220%22%2F%3E%3CmxCell%20id%3D%221%22%20parent%3D%220%22%2F%3E%3CmxCell%20id%3D%222%22%20value%3D%22%22%20style%3D%22endArrow%3Dnone%3Bhtml%3D1%3Brounded%3D0%3B%22%20edge%3D%221%22%20parent%3D%221%22%3E%3CmxGeometry%20width%3D%2250%22%20height%3D%2250%22%20relative%3D%221%22%20as%3D%22geometry%22%3E%3CmxPoint%20x%3D%22801%22%20y%3D%22623%22%20as%3D%22sourcePoint%22%2F%3E%3CmxPoint%20x%3D%22745%22%20y%3D%22589%22%20as%3D%22targetPoint%22%2F%3E%3C%2FmxGeometry%3E%3C%2FmxCell%3E%3C%2Froot%3E%3C%2FmxGraphModel%3E&lt;/span&gt;" style="ellipse;whiteSpace=wrap;html=1;" vertex="1" parent="1">
          <mxGeometry x="829" y="550" width="102" height="20" as="geometry" />
        </mxCell>
        <mxCell id="eR2wr4R8r9WLx05fAy1V-80" value="" style="endArrow=none;html=1;rounded=0;" edge="1" parent="1" source="eR2wr4R8r9WLx05fAy1V-1" target="eR2wr4R8r9WLx05fAy1V-26">
          <mxGeometry width="50" height="50" relative="1" as="geometry">
            <mxPoint x="360" y="340" as="sourcePoint" />
            <mxPoint x="410" y="290" as="targetPoint" />
          </mxGeometry>
        </mxCell>
        <mxCell id="eR2wr4R8r9WLx05fAy1V-81" value="" style="endArrow=none;html=1;rounded=0;" edge="1" parent="1" target="eR2wr4R8r9WLx05fAy1V-25">
          <mxGeometry width="50" height="50" relative="1" as="geometry">
            <mxPoint x="362" y="270" as="sourcePoint" />
            <mxPoint x="419" y="217" as="targetPoint" />
          </mxGeometry>
        </mxCell>
        <mxCell id="eR2wr4R8r9WLx05fAy1V-82" value="" style="endArrow=none;html=1;rounded=0;entryX=0.733;entryY=0.87;entryDx=0;entryDy=0;entryPerimeter=0;" edge="1" parent="1" source="eR2wr4R8r9WLx05fAy1V-1" target="eR2wr4R8r9WLx05fAy1V-24">
          <mxGeometry width="50" height="50" relative="1" as="geometry">
            <mxPoint x="372" y="280" as="sourcePoint" />
            <mxPoint x="527" y="216" as="targetPoint" />
          </mxGeometry>
        </mxCell>
        <mxCell id="eR2wr4R8r9WLx05fAy1V-83" value="" style="endArrow=none;html=1;rounded=0;" edge="1" parent="1" source="eR2wr4R8r9WLx05fAy1V-5" target="eR2wr4R8r9WLx05fAy1V-33">
          <mxGeometry width="50" height="50" relative="1" as="geometry">
            <mxPoint x="760" y="340" as="sourcePoint" />
            <mxPoint x="810" y="290" as="targetPoint" />
          </mxGeometry>
        </mxCell>
        <mxCell id="eR2wr4R8r9WLx05fAy1V-84" value="" style="endArrow=none;html=1;rounded=0;" edge="1" parent="1">
          <mxGeometry width="50" height="50" relative="1" as="geometry">
            <mxPoint x="1115" y="265" as="sourcePoint" />
            <mxPoint x="1160" y="240" as="targetPoint" />
          </mxGeometry>
        </mxCell>
        <mxCell id="eR2wr4R8r9WLx05fAy1V-85" value="" style="endArrow=none;html=1;rounded=0;" edge="1" parent="1" target="eR2wr4R8r9WLx05fAy1V-35">
          <mxGeometry width="50" height="50" relative="1" as="geometry">
            <mxPoint x="1125" y="275" as="sourcePoint" />
            <mxPoint x="1194" y="228" as="targetPoint" />
          </mxGeometry>
        </mxCell>
        <mxCell id="eR2wr4R8r9WLx05fAy1V-86" value="" style="endArrow=none;html=1;rounded=0;entryX=0.033;entryY=0.74;entryDx=0;entryDy=0;entryPerimeter=0;" edge="1" parent="1" target="eR2wr4R8r9WLx05fAy1V-36">
          <mxGeometry width="50" height="50" relative="1" as="geometry">
            <mxPoint x="1125" y="275" as="sourcePoint" />
            <mxPoint x="1170" y="250" as="targetPoint" />
          </mxGeometry>
        </mxCell>
        <mxCell id="eR2wr4R8r9WLx05fAy1V-87" value="" style="endArrow=none;html=1;rounded=0;" edge="1" parent="1" source="eR2wr4R8r9WLx05fAy1V-19" target="eR2wr4R8r9WLx05fAy1V-3">
          <mxGeometry width="50" height="50" relative="1" as="geometry">
            <mxPoint x="724" y="554" as="sourcePoint" />
            <mxPoint x="580" y="490" as="targetPoint" />
          </mxGeometry>
        </mxCell>
        <mxCell id="eR2wr4R8r9WLx05fAy1V-88" value="" style="endArrow=none;html=1;rounded=0;" edge="1" parent="1" source="eR2wr4R8r9WLx05fAy1V-21" target="eR2wr4R8r9WLx05fAy1V-3">
          <mxGeometry width="50" height="50" relative="1" as="geometry">
            <mxPoint x="845" y="557" as="sourcePoint" />
            <mxPoint x="580" y="481" as="targetPoint" />
          </mxGeometry>
        </mxCell>
        <mxCell id="eR2wr4R8r9WLx05fAy1V-89" value="" style="endArrow=none;html=1;rounded=0;" edge="1" parent="1" source="eR2wr4R8r9WLx05fAy1V-18" target="eR2wr4R8r9WLx05fAy1V-3">
          <mxGeometry width="50" height="50" relative="1" as="geometry">
            <mxPoint x="603" y="551" as="sourcePoint" />
            <mxPoint x="548" y="490" as="targetPoint" />
          </mxGeometry>
        </mxCell>
      </root>
    </mxGraphModel>
  </diagram>
</mxfile>
